<mxfile host="app.diagrams.net" agent="Mozilla/5.0 (Windows NT 10.0; Win64; x64) AppleWebKit/537.36 (KHTML, like Gecko) Chrome/130.0.0.0 Safari/537.36" version="24.8.3">
  <diagram name="Trang-1" id="Jo_JYCJpDlFUxjsZ-QSN">
    <mxGraphModel dx="2261" dy="772" grid="1" gridSize="10" guides="1" tooltips="1" connect="1" arrows="1" fold="1" page="1" pageScale="1" pageWidth="827" pageHeight="1169" math="0" shadow="0">
      <root>
        <mxCell id="0" />
        <mxCell id="1" parent="0" />
        <mxCell id="a4QI_eXSrBGM-lqWgjVB-1" value="Chính" style="shape=umlActor;verticalLabelPosition=bottom;verticalAlign=top;html=1;outlineConnect=0;" vertex="1" parent="1">
          <mxGeometry x="170" y="70" width="30" height="60" as="geometry" />
        </mxCell>
        <mxCell id="a4QI_eXSrBGM-lqWgjVB-2" value="" style="endArrow=classic;html=1;rounded=0;entryX=0.433;entryY=0.047;entryDx=0;entryDy=0;entryPerimeter=0;exitX=1.013;exitY=0.168;exitDx=0;exitDy=0;exitPerimeter=0;" edge="1" parent="1" source="a4QI_eXSrBGM-lqWgjVB-20" target="a4QI_eXSrBGM-lqWgjVB-15">
          <mxGeometry width="50" height="50" relative="1" as="geometry">
            <mxPoint x="-190" y="220" as="sourcePoint" />
            <mxPoint x="-70" y="220" as="targetPoint" />
          </mxGeometry>
        </mxCell>
        <mxCell id="a4QI_eXSrBGM-lqWgjVB-13" value="1/ connect" style="edgeLabel;html=1;align=center;verticalAlign=middle;resizable=0;points=[];" vertex="1" connectable="0" parent="a4QI_eXSrBGM-lqWgjVB-2">
          <mxGeometry x="0.0339" y="-2" relative="1" as="geometry">
            <mxPoint x="14" y="-20" as="offset" />
          </mxGeometry>
        </mxCell>
        <mxCell id="a4QI_eXSrBGM-lqWgjVB-15" value="Websocket/Springboot" style="rounded=1;whiteSpace=wrap;html=1;" vertex="1" parent="1">
          <mxGeometry x="-10" y="350" width="140" height="60" as="geometry" />
        </mxCell>
        <mxCell id="a4QI_eXSrBGM-lqWgjVB-16" value="MongoDB" style="shape=cylinder3;whiteSpace=wrap;html=1;boundedLbl=1;backgroundOutline=1;size=15;" vertex="1" parent="1">
          <mxGeometry x="40" y="590" width="60" height="90" as="geometry" />
        </mxCell>
        <mxCell id="a4QI_eXSrBGM-lqWgjVB-17" value="" style="endArrow=classic;html=1;rounded=0;exitX=0.25;exitY=0;exitDx=0;exitDy=0;entryX=0.984;entryY=0.409;entryDx=0;entryDy=0;entryPerimeter=0;" edge="1" parent="1" source="a4QI_eXSrBGM-lqWgjVB-15" target="a4QI_eXSrBGM-lqWgjVB-20">
          <mxGeometry width="50" height="50" relative="1" as="geometry">
            <mxPoint x="29" y="359.9999999999999" as="sourcePoint" />
            <mxPoint x="-190" y="230" as="targetPoint" />
          </mxGeometry>
        </mxCell>
        <mxCell id="a4QI_eXSrBGM-lqWgjVB-18" value="2/accepted" style="edgeLabel;html=1;align=center;verticalAlign=middle;resizable=0;points=[];" vertex="1" connectable="0" parent="a4QI_eXSrBGM-lqWgjVB-17">
          <mxGeometry x="0.4118" y="2" relative="1" as="geometry">
            <mxPoint x="25" y="-9" as="offset" />
          </mxGeometry>
        </mxCell>
        <mxCell id="a4QI_eXSrBGM-lqWgjVB-19" value="" style="endArrow=classic;html=1;rounded=0;exitX=0.979;exitY=0.674;exitDx=0;exitDy=0;exitPerimeter=0;entryX=0.098;entryY=0.013;entryDx=0;entryDy=0;entryPerimeter=0;" edge="1" parent="1" source="a4QI_eXSrBGM-lqWgjVB-20" target="a4QI_eXSrBGM-lqWgjVB-15">
          <mxGeometry width="50" height="50" relative="1" as="geometry">
            <mxPoint x="-50" y="180" as="sourcePoint" />
            <mxPoint x="280" y="290" as="targetPoint" />
          </mxGeometry>
        </mxCell>
        <mxCell id="a4QI_eXSrBGM-lqWgjVB-21" value="3/onConnect" style="edgeLabel;html=1;align=center;verticalAlign=middle;resizable=0;points=[];" vertex="1" connectable="0" parent="a4QI_eXSrBGM-lqWgjVB-19">
          <mxGeometry x="0.058" y="1" relative="1" as="geometry">
            <mxPoint x="16" y="-13" as="offset" />
          </mxGeometry>
        </mxCell>
        <mxCell id="a4QI_eXSrBGM-lqWgjVB-20" value="html/css/js" style="rounded=1;whiteSpace=wrap;html=1;" vertex="1" parent="1">
          <mxGeometry x="-290" y="180" width="120" height="60" as="geometry" />
        </mxCell>
        <mxCell id="a4QI_eXSrBGM-lqWgjVB-22" value="" style="endArrow=classic;html=1;rounded=0;exitX=0.472;exitY=1.001;exitDx=0;exitDy=0;exitPerimeter=0;entryX=0.423;entryY=-0.015;entryDx=0;entryDy=0;entryPerimeter=0;" edge="1" parent="1" source="a4QI_eXSrBGM-lqWgjVB-15" target="a4QI_eXSrBGM-lqWgjVB-16">
          <mxGeometry width="50" height="50" relative="1" as="geometry">
            <mxPoint x="51.51999999999998" y="429.99999999999994" as="sourcePoint" />
            <mxPoint x="65.38000000000011" y="590.7199999999998" as="targetPoint" />
          </mxGeometry>
        </mxCell>
        <mxCell id="a4QI_eXSrBGM-lqWgjVB-23" value="4/ addUser" style="edgeLabel;html=1;align=center;verticalAlign=middle;resizable=0;points=[];" vertex="1" connectable="0" parent="a4QI_eXSrBGM-lqWgjVB-22">
          <mxGeometry x="0.0105" y="-2" relative="1" as="geometry">
            <mxPoint x="26" y="-20" as="offset" />
          </mxGeometry>
        </mxCell>
        <mxCell id="a4QI_eXSrBGM-lqWgjVB-28" value="" style="endArrow=classic;startArrow=classic;html=1;rounded=0;entryX=0.334;entryY=0.99;entryDx=0;entryDy=0;exitX=0.145;exitY=0;exitDx=0;exitDy=4.35;exitPerimeter=0;entryPerimeter=0;" edge="1" parent="1" source="a4QI_eXSrBGM-lqWgjVB-16" target="a4QI_eXSrBGM-lqWgjVB-15">
          <mxGeometry width="50" height="50" relative="1" as="geometry">
            <mxPoint x="90" y="470" as="sourcePoint" />
            <mxPoint x="140" y="420" as="targetPoint" />
          </mxGeometry>
        </mxCell>
        <mxCell id="a4QI_eXSrBGM-lqWgjVB-31" value="" style="endArrow=classic;startArrow=classic;html=1;rounded=0;entryX=0.001;entryY=0.082;entryDx=0;entryDy=0;exitX=0.944;exitY=0.995;exitDx=0;exitDy=0;exitPerimeter=0;entryPerimeter=0;" edge="1" parent="1" target="a4QI_eXSrBGM-lqWgjVB-15">
          <mxGeometry width="50" height="50" relative="1" as="geometry">
            <mxPoint x="-170.00000000000026" y="239.99999999999994" as="sourcePoint" />
            <mxPoint x="-3.2800000000000002" y="365.2999999999999" as="targetPoint" />
          </mxGeometry>
        </mxCell>
        <mxCell id="a4QI_eXSrBGM-lqWgjVB-32" value="5/findAndDisplayUser&lt;div&gt;fetchAndDisplayUserChat&lt;/div&gt;" style="edgeLabel;html=1;align=center;verticalAlign=middle;resizable=0;points=[];" vertex="1" connectable="0" parent="a4QI_eXSrBGM-lqWgjVB-31">
          <mxGeometry x="-0.032" y="1" relative="1" as="geometry">
            <mxPoint x="-54" y="7" as="offset" />
          </mxGeometry>
        </mxCell>
        <mxCell id="a4QI_eXSrBGM-lqWgjVB-34" value="6/findAllUser" style="text;html=1;align=center;verticalAlign=middle;resizable=0;points=[];autosize=1;strokeColor=none;fillColor=none;" vertex="1" parent="1">
          <mxGeometry x="25" y="510" width="90" height="30" as="geometry" />
        </mxCell>
        <mxCell id="a4QI_eXSrBGM-lqWgjVB-36" value="Nguyên" style="shape=umlActor;verticalLabelPosition=bottom;verticalAlign=top;html=1;outlineConnect=0;" vertex="1" parent="1">
          <mxGeometry x="420" y="340" width="30" height="60" as="geometry" />
        </mxCell>
        <mxCell id="a4QI_eXSrBGM-lqWgjVB-38" value="" style="endArrow=classic;html=1;rounded=0;entryX=0.578;entryY=0.059;entryDx=0;entryDy=0;entryPerimeter=0;" edge="1" parent="1" source="a4QI_eXSrBGM-lqWgjVB-1" target="a4QI_eXSrBGM-lqWgjVB-15">
          <mxGeometry width="50" height="50" relative="1" as="geometry">
            <mxPoint x="-220" y="420" as="sourcePoint" />
            <mxPoint x="110" y="240" as="targetPoint" />
          </mxGeometry>
        </mxCell>
        <mxCell id="a4QI_eXSrBGM-lqWgjVB-39" value="7/sendMessage" style="edgeLabel;html=1;align=center;verticalAlign=middle;resizable=0;points=[];" vertex="1" connectable="0" parent="a4QI_eXSrBGM-lqWgjVB-38">
          <mxGeometry x="-0.0048" y="1" relative="1" as="geometry">
            <mxPoint as="offset" />
          </mxGeometry>
        </mxCell>
        <mxCell id="a4QI_eXSrBGM-lqWgjVB-45" value="" style="edgeStyle=orthogonalEdgeStyle;rounded=0;orthogonalLoop=1;jettySize=auto;html=1;" edge="1" parent="1" source="a4QI_eXSrBGM-lqWgjVB-44" target="a4QI_eXSrBGM-lqWgjVB-20">
          <mxGeometry relative="1" as="geometry" />
        </mxCell>
        <mxCell id="a4QI_eXSrBGM-lqWgjVB-44" value="Actor" style="shape=umlActor;verticalLabelPosition=bottom;verticalAlign=top;html=1;outlineConnect=0;" vertex="1" parent="1">
          <mxGeometry x="-270" y="80" width="30" height="60" as="geometry" />
        </mxCell>
        <mxCell id="a4QI_eXSrBGM-lqWgjVB-46" value="" style="endArrow=classic;html=1;rounded=0;exitX=0.987;exitY=0.346;exitDx=0;exitDy=0;exitPerimeter=0;" edge="1" parent="1" source="a4QI_eXSrBGM-lqWgjVB-15" target="a4QI_eXSrBGM-lqWgjVB-36">
          <mxGeometry width="50" height="50" relative="1" as="geometry">
            <mxPoint x="60" y="360" as="sourcePoint" />
            <mxPoint x="340" y="310" as="targetPoint" />
          </mxGeometry>
        </mxCell>
        <mxCell id="a4QI_eXSrBGM-lqWgjVB-47" value="&lt;div style=&quot;background-color:#1e1f22;color:#bcbec4&quot;&gt;&lt;pre style=&quot;font-family:&#39;JetBrains Mono&#39;,monospace;font-size:14,3pt;&quot;&gt;&lt;br&gt;&lt;/pre&gt;&lt;/div&gt;" style="edgeLabel;html=1;align=center;verticalAlign=middle;resizable=0;points=[];" vertex="1" connectable="0" parent="a4QI_eXSrBGM-lqWgjVB-46">
          <mxGeometry x="-0.3719" y="-1" relative="1" as="geometry">
            <mxPoint as="offset" />
          </mxGeometry>
        </mxCell>
        <mxCell id="a4QI_eXSrBGM-lqWgjVB-49" value="8/processMessage" style="edgeLabel;html=1;align=center;verticalAlign=middle;resizable=0;points=[];" vertex="1" connectable="0" parent="a4QI_eXSrBGM-lqWgjVB-46">
          <mxGeometry x="-0.0739" relative="1" as="geometry">
            <mxPoint x="-63" y="-10" as="offset" />
          </mxGeometry>
        </mxCell>
        <mxCell id="a4QI_eXSrBGM-lqWgjVB-54" value="" style="endArrow=classic;startArrow=classic;html=1;rounded=0;exitX=0.791;exitY=0.008;exitDx=0;exitDy=0;exitPerimeter=0;" edge="1" parent="1" source="a4QI_eXSrBGM-lqWgjVB-16">
          <mxGeometry width="50" height="50" relative="1" as="geometry">
            <mxPoint x="70.00000000000001" y="620" as="sourcePoint" />
            <mxPoint x="90.02" y="410" as="targetPoint" />
          </mxGeometry>
        </mxCell>
        <mxCell id="a4QI_eXSrBGM-lqWgjVB-55" value="9/saveChatMessage" style="edgeLabel;html=1;align=center;verticalAlign=middle;resizable=0;points=[];" vertex="1" connectable="0" parent="a4QI_eXSrBGM-lqWgjVB-54">
          <mxGeometry x="0.0149" y="-1" relative="1" as="geometry">
            <mxPoint x="50" as="offset" />
          </mxGeometry>
        </mxCell>
        <mxCell id="a4QI_eXSrBGM-lqWgjVB-56" value="" style="endArrow=classic;startArrow=classic;html=1;rounded=0;exitX=0;exitY=0;exitDx=0;exitDy=15;exitPerimeter=0;" edge="1" parent="1" source="a4QI_eXSrBGM-lqWgjVB-16">
          <mxGeometry width="50" height="50" relative="1" as="geometry">
            <mxPoint x="60" y="430" as="sourcePoint" />
            <mxPoint x="14" y="410" as="targetPoint" />
          </mxGeometry>
        </mxCell>
        <mxCell id="a4QI_eXSrBGM-lqWgjVB-58" value="5.5/findChattMessage" style="edgeLabel;html=1;align=center;verticalAlign=middle;resizable=0;points=[];" vertex="1" connectable="0" parent="a4QI_eXSrBGM-lqWgjVB-56">
          <mxGeometry x="0.0036" y="1" relative="1" as="geometry">
            <mxPoint x="28" y="-49" as="offset" />
          </mxGeometry>
        </mxCell>
      </root>
    </mxGraphModel>
  </diagram>
</mxfile>
